<svg width="121" height="58" viewBox="0 0 121 58" fill="none" xmlns="http://www.w3.org/2000/svg">
<mask id="mask0_21_338" style="mask-type:luminance" maskUnits="userSpaceOnUse" x="15" y="28" width="18" height="17">
<path d="M15.3105 28.1823H32.3477V44.4379H15.3105V28.1823Z" fill="white"/>
</mask>
<g mask="url(#mask0_21_338)">
<path d="M23.9284 35.901C23.9802 35.7736 24.0321 35.6454 24.0835 35.518C24.413 34.7088 24.7882 33.9166 25.2108 33.1408C25.597 32.4309 26.0376 31.7481 26.5414 31.0968C26.8766 30.6631 27.2371 30.2446 27.6324 29.8503C27.8288 29.6534 28.0313 29.4599 28.2489 29.2786C28.2856 29.248 28.324 29.2182 28.3648 29.1923C28.4739 29.1249 28.571 29.1451 28.6339 29.2459C28.6956 29.346 28.7364 29.4546 28.7801 29.5607C29.0814 30.3 29.2827 31.0602 29.4215 31.8333C29.4848 32.1889 29.5301 32.5459 29.564 32.9048C29.5889 33.1773 29.6032 33.4506 29.6163 33.7239C29.6354 34.1005 29.6314 34.4777 29.6236 34.8547C29.6163 35.2117 29.6007 35.5684 29.5742 35.9247C29.5477 36.2782 29.5146 36.6321 29.4738 36.9849C29.4378 37.2933 29.3901 37.6014 29.3345 37.908C29.2741 38.2409 29.2153 38.5749 29.1496 38.9071C29.0569 39.3731 28.9614 39.8391 28.836 40.2998C28.7303 40.6881 28.6339 41.0785 28.5241 41.4661C28.3632 42.0361 28.1627 42.5961 27.9353 43.1487C27.8745 43.2971 27.8124 43.4455 27.752 43.5942C27.7287 43.6534 27.73 43.6534 27.8022 43.6609C27.9684 43.6779 28.1354 43.684 28.3016 43.6992C28.5661 43.7237 28.8295 43.7578 29.092 43.7979C29.5215 43.8639 29.9519 43.9278 30.3838 43.9832C30.8375 44.041 31.2911 44.0989 31.7459 44.156C31.8492 44.1691 31.9533 44.1794 32.0574 44.189C32.0999 44.1929 32.1424 44.1908 32.1844 44.1855C32.2526 44.1766 32.2991 44.2039 32.3138 44.255C32.3293 44.3093 32.2934 44.3654 32.2318 44.3839C32.204 44.392 32.1758 44.3906 32.1477 44.3913C31.9966 44.3938 31.8484 44.3707 31.7002 44.3523C31.2849 44.3012 30.8705 44.2486 30.4557 44.1965C30.0241 44.1411 29.5938 44.0793 29.1643 44.013C28.8046 43.9572 28.4432 43.909 28.079 43.8838C27.8729 43.8692 27.6667 43.8596 27.4597 43.8522C27.318 43.8476 27.1767 43.8401 27.035 43.8447C26.7325 43.8543 26.4291 43.8586 26.1266 43.8831C25.8922 43.9015 25.6583 43.9136 25.4239 43.9328C25.1112 43.958 24.7984 43.9871 24.4865 44.0254C23.9786 44.0875 23.4715 44.1514 22.964 44.2149C22.5908 44.2611 22.216 44.2944 21.84 44.3182C21.5235 44.3381 21.2067 44.353 20.8895 44.3633C20.5016 44.376 20.1137 44.3906 19.725 44.3856C19.3963 44.3817 19.0673 44.3721 18.7398 44.3565C18.3919 44.3395 18.0453 44.3079 17.6974 44.2905C17.4459 44.2774 17.1944 44.2529 16.9421 44.2582C16.7069 44.2632 16.4726 44.2774 16.2382 44.2958C16.1288 44.3047 16.0173 44.3047 15.9075 44.3122C15.7805 44.321 15.6535 44.3292 15.5266 44.3402C15.5159 44.3409 15.5041 44.342 15.4931 44.342C15.4257 44.3409 15.3771 44.3068 15.3739 44.2575C15.3706 44.2121 15.4077 44.1713 15.4718 44.1624C15.6066 44.1446 15.7405 44.1276 15.8761 44.1173C16.1614 44.0964 16.446 44.0758 16.7318 44.0616C16.9156 44.0527 17.1005 44.0506 17.2847 44.0662C17.3855 44.0751 17.4884 44.0765 17.5901 44.0825C17.8301 44.0967 18.0706 44.1084 18.3103 44.1276C18.3903 44.1336 18.4021 44.1226 18.3879 44.0545C18.3262 43.7439 18.2609 43.4341 18.2029 43.1228C18.1441 42.8094 18.1012 42.4932 18.0555 42.1784C18.0163 41.9072 17.9853 41.635 17.9608 41.3624C17.9428 41.1608 17.9342 40.9593 17.9191 40.7577C17.8983 40.4695 17.9106 40.1813 17.8995 39.8931C17.884 39.4966 17.8832 39.0995 17.891 38.703C17.8967 38.3996 17.9106 38.0972 17.9257 37.7948C17.9387 37.5197 17.9555 37.2436 17.9759 36.9686C18.0008 36.6293 18.0265 36.2907 18.0698 35.9528C18.138 35.4215 18.22 34.8919 18.3246 34.3649C18.434 33.8109 18.561 33.2604 18.7116 32.7142C18.9199 31.9607 19.1857 31.2228 19.5164 30.5037C19.7279 30.0431 19.9671 29.5934 20.2358 29.1568C20.3975 28.8938 20.5722 28.6369 20.76 28.3877C20.7931 28.3441 20.8274 28.3018 20.8699 28.2656C20.9593 28.19 21.0532 28.1914 21.1348 28.2731C21.2014 28.3405 21.2561 28.4158 21.3096 28.4914C21.5484 28.8299 21.7775 29.1724 21.9755 29.5302C22.2421 30.0125 22.4851 30.503 22.6933 31.007C23.0648 31.9071 23.3323 32.8306 23.5397 33.7679C23.6519 34.2715 23.745 34.7769 23.8251 35.2845C23.8549 35.4744 23.8798 35.666 23.9075 35.8559C23.9096 35.8704 23.9128 35.8846 23.9153 35.8988C23.919 35.9017 23.9239 35.901 23.9284 35.901ZM22.9521 44.0069C22.9521 43.9974 22.953 43.9949 22.9521 43.9927C22.9138 43.9157 22.8746 43.8394 22.837 43.7624C22.5438 43.1658 22.3524 42.5429 22.2066 41.9087C22.0837 41.372 22.0016 40.8304 21.9441 40.2853C21.9081 39.9392 21.8792 39.5932 21.8698 39.2457C21.8563 38.7559 21.8518 38.2654 21.8767 37.7749C21.8934 37.4527 21.9159 37.1308 21.9465 36.8092C21.978 36.4802 22.0212 36.1523 22.0735 35.8254C22.14 35.4133 22.2217 35.003 22.3234 34.5956C22.4842 33.9539 22.6847 33.3232 22.9685 32.7142C22.9975 32.6513 23.0024 32.5942 22.9828 32.5289C22.8345 32.0274 22.6582 31.5337 22.4585 31.0457C22.2446 30.5225 21.9873 30.0157 21.706 29.5178C21.5178 29.1859 21.2953 28.8708 21.0871 28.5485C21.0687 28.5205 21.0495 28.4931 21.0283 28.4672C21.0005 28.4331 20.9883 28.4339 20.9593 28.4679C20.9491 28.4796 20.9413 28.4931 20.9327 28.5055C20.8572 28.6188 20.7845 28.7331 20.7078 28.8448C20.3252 29.3999 20.01 29.9845 19.7311 30.5832C19.5025 31.0744 19.311 31.5777 19.1412 32.0867C19.0587 32.3326 18.9876 32.5814 18.9186 32.8306C18.9076 32.8703 18.8933 32.9083 18.9215 32.9512C19.1412 33.2845 19.2616 33.6483 19.3551 34.0206C19.4608 34.4419 19.5531 34.8657 19.6458 35.2891C19.7226 35.638 19.7891 35.9876 19.8267 36.3411C19.8659 36.7088 19.8863 37.0782 19.8924 37.4473C19.9018 38.0312 19.9059 38.615 19.8855 39.1989C19.8769 39.4427 19.8642 39.6858 19.8622 39.9303C19.8622 39.9719 19.8622 40.0141 19.8589 40.056C19.8377 40.3779 19.8095 40.6995 19.7822 41.021C19.7577 41.3039 19.7462 41.5864 19.7258 41.8693C19.7156 42.0144 19.7013 42.1589 19.6817 42.3033C19.656 42.4939 19.6184 42.6834 19.5956 42.8747C19.5462 43.2822 19.4653 43.6847 19.3551 44.0825C19.329 44.1752 19.3314 44.178 19.4429 44.178C19.8932 44.178 20.344 44.1847 20.7947 44.1663C21.1254 44.1535 21.457 44.1397 21.7877 44.1209C22.1041 44.1024 22.4193 44.0737 22.7341 44.0403C22.8056 44.0321 22.8807 44.0343 22.9521 44.0069ZM23.1012 32.9832C23.0836 33.0194 23.0714 33.0432 23.0612 33.0684C22.9983 33.2135 22.9444 33.3612 22.8909 33.5099C22.688 34.0774 22.5373 34.6563 22.4177 35.2415C22.3417 35.6128 22.2805 35.9854 22.2335 36.3602C22.1927 36.6811 22.1629 37.0019 22.1384 37.3242C22.1168 37.6142 22.1066 37.9045 22.0972 38.1948C22.0878 38.4876 22.0906 38.7804 22.1025 39.0743C22.1151 39.3916 22.1307 39.7092 22.1568 40.0258C22.1756 40.2615 22.2013 40.4972 22.2335 40.7318C22.2907 41.1573 22.3658 41.5804 22.4679 42.0002C22.6002 42.5457 22.768 43.0824 23.0117 43.5995C23.064 43.7113 23.1175 43.8231 23.1816 43.9299C23.2122 43.981 23.2122 43.9803 23.2804 43.9729C23.2914 43.9714 23.3033 43.9697 23.3143 43.9697C23.3539 43.969 23.3776 43.9519 23.3837 43.9178C23.387 43.9008 23.3919 43.8838 23.3955 43.8675C23.4952 43.3926 23.5862 42.9163 23.6564 42.4375C23.7263 41.9612 23.7814 41.4838 23.8181 41.004C23.8422 40.692 23.8487 40.3786 23.8516 40.0659C23.8573 39.4406 23.8745 38.8145 23.8406 38.1891C23.8312 38.017 23.8283 37.8445 23.8173 37.672C23.7985 37.3576 23.7773 37.0427 23.7536 36.7286C23.7381 36.5128 23.7218 36.296 23.6956 36.0809C23.6605 35.7796 23.6152 35.4793 23.5678 35.1787C23.4654 34.5193 23.3274 33.8655 23.1677 33.215C23.1502 33.1418 23.1371 33.0662 23.1012 32.9832ZM18.8215 33.2217C18.808 33.2597 18.7994 33.2803 18.7937 33.3016C18.7423 33.5262 18.688 33.7502 18.6394 33.9759C18.5438 34.4167 18.4638 34.8593 18.3948 35.3036C18.3368 35.6795 18.2837 36.0564 18.2499 36.4344C18.2241 36.7191 18.2045 37.0044 18.1902 37.2901C18.1849 37.3955 18.1817 37.502 18.1723 37.6074C18.1482 37.8828 18.1364 38.1586 18.1302 38.4337C18.1135 39.1513 18.1225 39.8679 18.1425 40.5852C18.1441 40.6416 18.1433 40.6987 18.1474 40.7555C18.1621 40.972 18.178 41.1882 18.196 41.404C18.207 41.5314 18.22 41.6595 18.236 41.7869C18.2686 42.0538 18.3058 42.3204 18.347 42.5866C18.3911 42.8673 18.4356 43.148 18.4936 43.4266C18.5414 43.6541 18.5965 43.8809 18.6247 44.1113C18.6283 44.1411 18.6459 44.1468 18.6741 44.15C18.7892 44.1638 18.906 44.1649 19.0219 44.1649C19.0852 44.1649 19.0918 44.1581 19.1073 44.1038C19.184 43.8359 19.2477 43.5654 19.2947 43.2925C19.329 43.0902 19.3486 42.8865 19.3857 42.6842C19.4633 42.2575 19.4951 41.8277 19.518 41.3972C19.5233 41.2989 19.529 41.2002 19.5368 41.1023C19.5617 40.7949 19.5939 40.4883 19.6127 40.1813C19.6315 39.876 19.6425 39.5708 19.6483 39.2656C19.6552 38.8713 19.6536 38.4766 19.6552 38.0823C19.6568 37.5645 19.6491 37.0474 19.6033 36.5309C19.5821 36.2878 19.5523 36.0454 19.5086 35.8048C19.4167 35.3036 19.2979 34.8068 19.1824 34.3088C19.1167 34.0235 19.0432 33.7402 18.9333 33.4648C18.9052 33.3871 18.8786 33.3097 18.8215 33.2217ZM23.9761 36.4738C23.9761 36.5515 23.9818 36.5558 24.0635 36.5395C24.0664 36.5388 24.0688 36.538 24.0713 36.5373C24.6825 36.4092 25.2937 36.2811 25.9049 36.153C26.9709 35.9297 28.0358 35.7054 29.1014 35.4822C29.2668 35.4474 29.2615 35.4616 29.1626 35.3391C28.7552 34.832 28.3461 34.3266 27.9378 33.8197C27.4809 33.2529 27.0248 32.6854 26.5688 32.1186C26.4945 32.026 26.4197 31.9326 26.3438 31.8407C26.3124 31.8027 26.3001 31.8042 26.2695 31.8421C26.2646 31.8482 26.2609 31.8553 26.2568 31.8613C26.0625 32.1452 25.8751 32.432 25.7028 32.7266C25.268 33.4662 24.8887 34.2279 24.5477 35.0037C24.3501 35.4527 24.1635 35.9045 24.0006 36.3634C23.9872 36.401 23.9741 36.4383 23.9761 36.4738ZM28.2709 41.4693C28.2828 41.4647 28.2873 41.4558 28.2905 41.4462C28.3118 41.3692 28.333 41.2929 28.353 41.2159C28.4592 40.8173 28.5669 40.4194 28.6682 40.0198C28.7874 39.5502 28.8805 39.0768 28.9691 38.6026C29.072 38.0528 29.1761 37.5038 29.2427 36.9501C29.2545 36.8507 29.2496 36.845 29.1398 36.8752C28.7372 36.9849 28.3342 37.096 27.9316 37.2064C26.7562 37.5279 25.5799 37.8495 24.404 38.1714C24.2889 38.203 24.2881 38.2044 24.3758 38.2757C24.6478 38.4993 24.9205 38.7219 25.1924 38.9455C25.4958 39.1939 25.7983 39.4427 26.1009 39.6922C26.5451 40.0578 26.9897 40.4237 27.4339 40.7903C27.6973 41.0075 27.9598 41.2247 28.2232 41.4416C28.2379 41.4529 28.2489 41.4693 28.2709 41.4693ZM24.1047 40.3584C24.0986 40.3623 24.0925 40.3665 24.086 40.3704C24.0798 40.4957 24.0704 40.6207 24.0672 40.746C24.0619 40.9475 24.0439 41.1491 24.0255 41.35C24.0014 41.6276 23.97 41.904 23.93 42.1805C23.8798 42.5244 23.8312 42.8694 23.7663 43.2119C23.7254 43.4281 23.6793 43.6439 23.636 43.8596C23.6238 43.9246 23.6348 43.9349 23.7107 43.9186C23.7797 43.904 23.8463 43.8845 23.9137 43.8653C25.1198 43.5306 26.3258 43.1963 27.5319 42.862C27.5601 42.8538 27.5924 42.8524 27.623 42.8251C26.4471 42.0006 25.2774 41.1779 24.1047 40.3584ZM24.0876 38.3311C24.0741 38.4237 24.0937 38.5114 24.0945 38.6001C24.097 38.8542 24.0954 39.1076 24.0978 39.3618C24.0994 39.5857 24.0909 39.81 24.0831 40.034C24.0815 40.0776 24.0909 40.1103 24.1415 40.1287C24.1668 40.1383 24.188 40.1568 24.2097 40.1724C24.6073 40.4503 25.0046 40.7289 25.4019 41.0075C26.0266 41.4448 26.6508 41.8828 27.2755 42.3211C27.4478 42.4414 27.6197 42.5621 27.792 42.6827C27.85 42.7228 27.8577 42.72 27.8839 42.6582C27.8892 42.6444 27.8949 42.6302 27.9002 42.616C28.0043 42.3346 28.1015 42.051 28.1942 41.7663C28.2089 41.7209 28.195 41.6936 28.1578 41.6634C27.8124 41.3823 27.4682 41.0994 27.1245 40.8166C26.817 40.5646 26.5108 40.3119 26.2042 40.0599C25.7616 39.6954 25.3194 39.3309 24.8768 38.9671C24.6298 38.7634 24.3832 38.5604 24.1362 38.3566C24.1252 38.3467 24.1158 38.3329 24.0876 38.3311ZM29.3468 35.8364C29.3545 35.6149 29.3603 35.6422 29.2018 35.6689C29.1965 35.6692 29.1908 35.6706 29.1855 35.672C27.8859 35.9446 26.5867 36.2179 25.2867 36.4894C24.8736 36.576 24.4608 36.6612 24.0468 36.7457C24.0068 36.7538 23.9953 36.7709 23.9974 36.8014C24.0014 36.8607 24.0076 36.9196 24.0108 36.9781C24.0243 37.2163 24.0345 37.4548 24.0517 37.6933C24.0586 37.7941 24.0635 37.8949 24.0672 37.9957C24.0688 38.0422 24.0766 38.0468 24.1292 38.0365C24.1403 38.0347 24.1513 38.0305 24.1611 38.0276C25.112 37.7668 26.0633 37.5066 27.0138 37.2458C27.5328 37.1034 28.0513 36.9618 28.5702 36.8191C28.7809 36.7613 28.992 36.7034 29.2027 36.6463C29.2451 36.6346 29.2794 36.6225 29.2835 36.5739C29.3047 36.307 29.3288 36.0401 29.3468 35.8364ZM29.3533 33.4425C29.3741 33.4137 29.368 33.3935 29.3672 33.3743C29.3611 33.2685 29.357 33.1624 29.346 33.0574C29.3109 32.7067 29.2733 32.3564 29.2161 32.0079C29.1439 31.571 29.0451 31.139 28.9299 30.7092C28.8376 30.366 28.7152 30.0303 28.5914 29.6949C28.5576 29.6037 28.5257 29.5117 28.4886 29.4212C28.4669 29.3673 28.4567 29.3666 28.4089 29.4067C28.3232 29.4791 28.2456 29.5572 28.166 29.6335C27.8729 29.9117 27.5866 30.1942 27.3257 30.4959C27.267 30.5641 27.2645 30.5634 27.318 30.6365C27.4927 30.8782 27.6691 31.1202 27.8439 31.3612C28.2701 31.9493 28.6964 32.5363 29.1218 33.1244C29.1974 33.2277 29.2725 33.3314 29.3533 33.4425ZM29.3664 35.2369C29.3876 35.2014 29.3815 35.1762 29.3823 35.1524C29.3843 34.9753 29.379 34.7975 29.3909 34.6204C29.4072 34.3709 29.3925 34.1228 29.386 33.8744C29.3852 33.8524 29.3868 33.8286 29.3647 33.8123C29.286 33.7523 29.2435 33.6707 29.1892 33.5958C28.8344 33.1085 28.4816 32.6208 28.1276 32.1332C27.8039 31.687 27.4801 31.2413 27.1563 30.7951C27.1159 30.7394 27.1126 30.7394 27.0657 30.7951C27.0608 30.8012 27.0563 30.8075 27.0506 30.8136C26.8554 31.0439 26.6721 31.281 26.4957 31.5227C26.4377 31.6026 26.4365 31.6026 26.4965 31.6782C26.7011 31.9326 26.9056 32.1868 27.111 32.4409C27.8235 33.3253 28.5351 34.2087 29.2472 35.0932C29.2851 35.1386 29.3235 35.1837 29.3664 35.2369ZM25.0671 43.7571C25.1222 43.7652 25.1573 43.7514 25.1932 43.7496C25.4811 43.7297 25.7685 43.7031 26.0572 43.6854C26.43 43.663 26.8031 43.6431 27.1775 43.646C27.2543 43.6467 27.3306 43.6446 27.4074 43.6474C27.4605 43.6492 27.4895 43.6311 27.5074 43.5867C27.5756 43.4171 27.6471 43.2481 27.7169 43.0785C27.723 43.0636 27.7381 43.0472 27.7128 43.0238C26.8391 43.2666 25.9604 43.5097 25.0671 43.7571Z" fill="#00167A"/>
</g>
<path d="M23.5334 45.5235C23.8984 45.526 24.2638 45.542 24.6268 45.5785C24.9841 45.6148 25.3405 45.6495 25.6986 45.6822C25.8672 45.6971 26.0375 45.7053 26.2065 45.7163C26.6046 45.7415 27.0035 45.7585 27.4032 45.7652C27.6955 45.7706 27.9862 45.7613 28.2777 45.7482C28.4023 45.7429 28.5272 45.7429 28.6517 45.734C28.824 45.7216 28.9963 45.7202 29.1695 45.7134C29.2597 45.7102 29.3507 45.7024 29.441 45.7006C29.5349 45.6985 29.5904 45.7361 29.5929 45.7972C29.5945 45.8586 29.541 45.8955 29.4463 45.9008C29.2033 45.9143 28.9596 45.9221 28.7167 45.9328C28.281 45.9533 27.8454 45.9785 27.4093 45.9704C27.0982 45.9647 26.7871 45.9526 26.476 45.9335C26.3012 45.9225 26.1256 45.9132 25.9509 45.9015C25.6974 45.8852 25.4434 45.8614 25.1903 45.8369C24.9338 45.8117 24.6783 45.7851 24.4223 45.7631C24.1258 45.7372 23.8282 45.7258 23.5318 45.7265C23.0876 45.728 22.6442 45.7557 22.202 45.8053C21.5107 45.8838 20.8391 46.0289 20.1793 46.2224C20.1119 46.2422 20.0462 46.2618 19.9894 46.3022C19.9433 46.3356 19.8886 46.3281 19.8519 46.2944C19.8155 46.2618 19.8118 46.2046 19.8453 46.1652C19.8768 46.1276 19.9237 46.1092 19.9707 46.0914C20.1744 46.0158 20.383 45.9519 20.5945 45.8969C21.0461 45.7794 21.5038 45.6889 21.9701 45.6297C22.2444 45.5949 22.5192 45.5651 22.7969 45.5494C23.0414 45.5356 23.2864 45.5221 23.5334 45.5235Z" fill="#00167A"/>
<mask id="mask1_21_338" style="mask-type:luminance" maskUnits="userSpaceOnUse" x="13" y="44" width="7" height="2">
<path d="M13.3519 44.8921H19.1778V45.5281H13.3519V44.8921Z" fill="white"/>
</mask>
<g mask="url(#mask1_21_338)">
<path d="M17.2155 45.311C16.9256 45.3163 16.561 45.2932 16.196 45.2748C15.8392 45.2563 15.4827 45.2407 15.1255 45.2503C14.7854 45.2598 14.4481 45.3014 14.1146 45.3592C13.9586 45.3858 13.8034 45.4146 13.652 45.4575C13.6067 45.4703 13.5626 45.4888 13.5181 45.5037C13.4552 45.5243 13.4045 45.5111 13.3776 45.4689C13.3519 45.4274 13.367 45.3812 13.4201 45.3472C13.4711 45.3149 13.5299 45.2968 13.5887 45.2783C13.8533 45.1956 14.1276 45.1445 14.4061 45.1094C14.6833 45.0739 14.9618 45.0494 15.2431 45.0465C15.5799 45.0434 15.9159 45.0561 16.2532 45.0767C16.3573 45.0827 16.4622 45.0867 16.5672 45.0909C16.9154 45.1058 17.2641 45.1175 17.6128 45.1087C17.8304 45.103 18.0476 45.0799 18.264 45.0575C18.5086 45.0316 18.7532 45.0043 18.9973 44.9777C19.0202 44.9752 19.043 44.9752 19.0655 44.977C19.1239 44.9827 19.1684 45.0206 19.1729 45.0671C19.1778 45.1118 19.141 45.1562 19.0831 45.1701C19.05 45.1775 19.0165 45.1807 18.9826 45.1843C18.6425 45.2205 18.3024 45.2556 17.9623 45.2911C17.7398 45.3149 17.5156 45.3095 17.2155 45.311Z" fill="#00167A"/>
</g>
<path d="M32.4901 45.1775C31.8781 45.1761 31.3273 45.1228 30.7802 45.0362C30.4148 44.9784 30.053 44.9081 29.686 44.8573C29.3038 44.8041 28.9196 44.7924 28.5342 44.8094C28.4313 44.8144 28.3248 44.8155 28.2268 44.8577C28.1798 44.8783 28.1304 44.8559 28.1047 44.8162C28.0781 44.7754 28.0859 44.7257 28.1251 44.6951C28.1578 44.6692 28.1986 44.6582 28.2411 44.6522C28.3913 44.6291 28.5428 44.6121 28.6963 44.6043C29.1405 44.5833 29.5778 44.6316 30.013 44.7026C30.3446 44.7562 30.6745 44.8155 31.0068 44.8655C31.2661 44.9042 31.527 44.9333 31.7903 44.95C32.0137 44.9635 32.237 44.9745 32.4603 44.977C32.7188 44.9805 32.9744 44.9518 33.23 44.9241C33.37 44.9081 33.5105 44.8932 33.6517 44.8783C33.6656 44.8769 33.6799 44.8769 33.6938 44.879C33.7542 44.8879 33.7942 44.9251 33.7967 44.9723C33.7987 45.0174 33.7677 45.0533 33.7117 45.071C33.6578 45.088 33.5999 45.0873 33.5443 45.093C33.1744 45.1289 32.8082 45.1895 32.4901 45.1775Z" fill="#00167A"/>
<path d="M20.0773 32.6003C20.0822 32.3749 20.1341 32.1605 20.2766 31.9675C20.3933 31.8102 20.5526 31.702 20.7657 31.6597C20.7963 31.6534 20.8265 31.6494 20.858 31.6509C20.9135 31.6534 20.9535 31.6814 20.9629 31.7222C20.9715 31.762 20.9441 31.8006 20.8927 31.8205C20.8743 31.8273 20.8547 31.8312 20.8355 31.8354C20.6926 31.8628 20.5816 31.9316 20.5015 32.0356C20.3987 32.169 20.3378 32.3156 20.3211 32.4764C20.3133 32.5548 20.3056 32.6326 20.319 32.7121C20.3394 32.837 20.4097 32.9296 20.535 32.9875C20.7232 33.0734 20.9225 33.0908 21.1283 33.0432C21.2038 33.0255 21.2712 32.9935 21.3242 32.9431C21.4247 32.8484 21.5108 32.7447 21.5635 32.623C21.6325 32.4629 21.5851 32.3053 21.4349 32.1964C21.3957 32.1687 21.3541 32.1421 21.3112 32.1194C21.1854 32.0541 21.0785 32.0622 20.9654 32.1414C20.8486 32.2237 20.818 32.3777 20.8964 32.4895C20.9131 32.5126 20.9331 32.5335 20.9584 32.5495C21.0201 32.5868 21.0829 32.5644 21.0964 32.4995C21.1103 32.4313 21.1409 32.4015 21.1965 32.3994C21.2577 32.3973 21.3112 32.437 21.3291 32.4956C21.3463 32.5527 21.332 32.6045 21.2891 32.6475C21.1756 32.7618 20.9919 32.8452 20.7906 32.6926C20.5101 32.4792 20.5828 32.0683 20.9262 31.9234C21.0789 31.8585 21.2312 31.8553 21.383 31.9238C21.4794 31.9675 21.568 32.0207 21.6423 32.0895C21.8211 32.2542 21.8738 32.4459 21.7938 32.6624C21.7309 32.8327 21.6158 32.9758 21.4716 33.1004C21.3598 33.1972 21.216 33.2455 21.0609 33.2625C20.8425 33.2856 20.631 33.2611 20.4342 33.1706C20.2031 33.0645 20.09 32.892 20.0773 32.6677C20.0761 32.6446 20.0773 32.6223 20.0773 32.6003Z" fill="#00167A"/>
<path d="M21.1849 33.8968C21.1849 33.9486 21.187 33.9997 21.1841 34.0515C21.1817 34.0881 21.1707 34.1243 21.1433 34.1544C21.1119 34.1896 21.0665 34.2034 21.0241 34.1917C20.9796 34.1796 20.9441 34.1463 20.9514 34.1026C20.9694 33.9798 20.9575 33.8574 20.9702 33.7353C20.9763 33.676 21.0233 33.6373 21.0768 33.6373C21.1298 33.6373 21.1723 33.676 21.1841 33.7346C21.1854 33.742 21.1862 33.7491 21.1862 33.7566C21.1862 33.8027 21.1862 33.8499 21.1862 33.8961C21.1854 33.8968 21.1849 33.8968 21.1849 33.8968Z" fill="#00167A"/>
<path d="M20.6583 31.0738C20.6558 31.007 20.6644 30.941 20.6721 30.875C20.6799 30.8069 20.7248 30.7678 20.7881 30.7707C20.8526 30.7735 20.902 30.8239 20.8947 30.8913C20.8861 30.9723 20.8877 31.0532 20.8791 31.1337C20.8759 31.1632 20.8775 31.1923 20.8775 31.2218C20.8783 31.2658 20.8485 31.2981 20.8032 31.3094C20.7632 31.3197 20.7199 31.3062 20.6909 31.2732C20.6677 31.247 20.6591 31.2161 20.6583 31.1834C20.6583 31.1472 20.6583 31.1107 20.6583 31.0738Z" fill="#00167A"/>
<path d="M19.898 31.3634C19.9315 31.3648 19.9592 31.3755 19.9801 31.3975C20.0388 31.4553 20.1087 31.4983 20.1948 31.5235C20.2561 31.5412 20.2818 31.5873 20.2671 31.6331C20.252 31.6768 20.1989 31.7045 20.1393 31.697C20.1144 31.6938 20.0891 31.6874 20.0666 31.6789C19.9747 31.6441 19.8919 31.5976 19.8212 31.5362C19.7857 31.5057 19.7669 31.4663 19.7898 31.4219C19.811 31.3818 19.851 31.3662 19.898 31.3634Z" fill="#00167A"/>
<path d="M20.3533 33.6469C20.3022 33.7328 20.2818 33.8425 20.21 33.9323C20.181 33.9692 20.1291 33.9745 20.0875 33.9582C20.047 33.9412 20.0181 33.9021 20.0295 33.8606C20.0577 33.7598 20.1018 33.664 20.1699 33.5788C20.1989 33.5426 20.2508 33.5358 20.2912 33.5529C20.332 33.5685 20.3516 33.5965 20.3533 33.6469Z" fill="#00167A"/>
<path d="M22.1902 32.6031C22.1518 32.6038 22.1237 32.6038 22.0971 32.5935C22.0514 32.5765 22.0232 32.5392 22.0265 32.5016C22.0298 32.4654 22.0596 32.4313 22.1065 32.426C22.2021 32.4143 22.2952 32.3994 22.3878 32.3742C22.4332 32.3621 22.4756 32.3809 22.4977 32.4132C22.5209 32.4466 22.514 32.4792 22.4903 32.5097C22.4638 32.5445 22.4254 32.5637 22.3809 32.5747C22.3148 32.5917 22.2474 32.5963 22.1902 32.6031Z" fill="#00167A"/>
<path d="M19.3297 32.6311C19.2587 32.6326 19.2076 32.5999 19.1982 32.5513C19.1888 32.503 19.2256 32.4622 19.2946 32.4498C19.3746 32.4356 19.455 32.4228 19.5359 32.4125C19.6065 32.4036 19.6596 32.4335 19.6714 32.4853C19.6816 32.5318 19.6482 32.58 19.5812 32.5935C19.4967 32.6113 19.4089 32.6194 19.3297 32.6311Z" fill="#00167A"/>
<path d="M21.5814 31.4028C21.5798 31.3414 21.7162 31.1554 21.7819 31.1295C21.8252 31.1124 21.8705 31.1174 21.9003 31.144C21.9309 31.1714 21.9387 31.2033 21.924 31.2392C21.9199 31.2487 21.9158 31.2576 21.9097 31.2658C21.8636 31.3279 21.8178 31.3907 21.7701 31.451C21.7394 31.4901 21.6966 31.5014 21.6521 31.4872C21.6088 31.4738 21.5823 31.4418 21.5814 31.4028Z" fill="#00167A"/>
<path d="M21.8713 33.2345C21.9693 33.2679 22.0783 33.3083 22.1355 33.4084C22.1587 33.4499 22.1473 33.4908 22.1134 33.516C22.0775 33.5433 22.0248 33.5461 21.9811 33.5145C21.9199 33.4705 21.857 33.4301 21.7913 33.3928C21.7484 33.3683 21.7382 33.3247 21.7553 33.2885C21.7725 33.2544 21.8117 33.2334 21.8713 33.2345Z" fill="#00167A"/>
<path d="M27.5547 41.8249C27.5539 41.8789 27.5343 41.9073 27.4963 41.925C27.4551 41.9449 27.4126 41.9413 27.3759 41.9176C27.3306 41.8885 27.2881 41.8558 27.2457 41.8228C26.8937 41.5442 26.5434 41.2649 26.1919 40.9863C25.7333 40.6232 25.274 40.2608 24.8155 39.8977C24.7992 39.885 24.782 39.8711 24.7686 39.8555C24.7302 39.8108 24.7318 39.7636 24.7694 39.7274C24.8086 39.6908 24.8706 39.6844 24.9237 39.716C24.9519 39.7323 24.978 39.7519 25.0029 39.7717C25.3549 40.0503 25.7052 40.3304 26.0571 40.6083C26.5238 40.9781 26.9917 41.3469 27.4596 41.716C27.4808 41.7323 27.5012 41.75 27.5208 41.7678C27.5429 41.7877 27.5551 41.8122 27.5547 41.8249Z" fill="#00167A"/>
<path d="M25.0226 37.3079C24.9511 37.3086 24.9009 37.2763 24.8895 37.2316C24.8784 37.1886 24.9025 37.145 24.9544 37.1226C24.9772 37.1123 25.0013 37.1059 25.0267 37.0999C25.8147 36.9072 26.6022 36.7152 27.3907 36.5228C27.734 36.439 28.0782 36.3553 28.422 36.2722C28.4465 36.2662 28.4714 36.2594 28.4967 36.2573C28.5539 36.2531 28.6053 36.2854 28.6196 36.3308C28.6331 36.3744 28.6119 36.4195 28.56 36.4419C28.5302 36.455 28.4967 36.4632 28.4645 36.4713C27.4417 36.7212 26.4189 36.9703 25.3962 37.2199C25.2929 37.2451 25.1887 37.2703 25.085 37.2947C25.0601 37.3001 25.036 37.305 25.0226 37.3079Z" fill="#00167A"/>
<path d="M27.1465 31.7115C27.1832 31.7123 27.2175 31.7272 27.242 31.757C27.2702 31.791 27.2967 31.8258 27.3224 31.8613C27.7654 32.4459 28.2072 33.0297 28.6502 33.6143C28.7245 33.7129 28.7992 33.8116 28.8735 33.911C28.8874 33.9294 28.9017 33.9486 28.9111 33.9692C28.9307 34.0139 28.9127 34.0604 28.8678 34.0863C28.8274 34.1101 28.7731 34.1094 28.7339 34.0799C28.7151 34.0657 28.6988 34.048 28.6853 34.0295C28.1509 33.3246 27.6164 32.6187 27.082 31.9131C27.0648 31.8904 27.0469 31.8674 27.0366 31.8422C27.0105 31.7797 27.0648 31.7133 27.1465 31.7115Z" fill="#00167A"/>
<mask id="mask2_21_338" style="mask-type:luminance" maskUnits="userSpaceOnUse" x="26" y="0" width="44" height="22">
<path d="M26.5609 1.04904e-05H69.1395V21.9957H26.5609V1.04904e-05Z" fill="white"/>
</mask>
<g mask="url(#mask2_21_338)">
<path d="M65.7878 11.9916C66.9322 11.6126 67.7292 10.4637 68.1787 8.54467L68.1771 8.55035C68.5523 6.79599 68.2943 5.17437 67.4042 3.68584L67.4078 3.69188C65.8057 1.14179 62.8534 0.209423 58.5512 0.895124L58.5945 0.885541C55.3976 1.7377 52.7376 3.07893 50.6153 4.90924L50.6234 4.90215C49.7975 5.65741 49.0993 6.3967 48.5281 7.11932L48.5403 7.10299C45.7464 11.1267 44.1488 13.2832 43.7466 13.5721C43.7392 13.5774 43.7319 13.5824 43.7245 13.5873L43.8005 13.5203C42.7381 14.7671 41.519 15.8396 40.143 16.7372L40.1524 16.7308C38.0117 18.2208 34.4551 19.4786 29.483 20.505L29.5405 20.4887C28.7493 20.7712 27.9727 21.2188 27.21 21.8307C27.0532 21.9563 26.8087 21.9478 26.6637 21.8115C26.5192 21.6752 26.5286 21.4626 26.6858 21.3366C27.5162 20.6701 28.37 20.1803 29.2466 19.8673C29.2653 19.8605 29.2845 19.8552 29.3041 19.8513C34.164 18.8479 37.619 17.633 39.6694 16.2063C39.6727 16.2041 39.6755 16.202 39.6788 16.1999C40.9947 15.3413 42.1612 14.3146 43.1791 13.1203C43.2007 13.0947 43.2264 13.072 43.2554 13.0528C43.2546 13.0535 43.2542 13.0539 43.2538 13.0543C43.5882 12.8136 45.1299 10.7139 47.8785 6.75553C47.8826 6.74985 47.8867 6.74452 47.8907 6.73885C48.4848 5.98677 49.2091 5.22015 50.0628 4.43933C50.0653 4.43685 50.0682 4.43436 50.0706 4.43223C52.2835 2.5242 55.0493 1.1276 58.3679 0.24314C58.3826 0.239236 58.3969 0.236397 58.4116 0.233913C63.0808 -0.509995 66.3055 0.535238 68.0864 3.36961C68.0877 3.37174 68.0889 3.37352 68.0901 3.37564C69.0622 5.00152 69.3448 6.76724 68.9373 8.67315C68.9369 8.67492 68.9365 8.67705 68.9361 8.67883C68.4302 10.8392 67.4724 12.1528 66.0634 12.6198C65.8637 12.6858 65.6404 12.5989 65.5644 12.4253C65.4885 12.2521 65.5885 12.058 65.7878 11.9916Z" fill="#00167A"/>
</g>
<path d="M65.5854 12.1645C65.9667 10.5205 65.5082 9.3127 64.2095 8.54182L64.265 8.5695C62.9229 8.02967 61.6878 8.34945 60.5601 9.52884L60.6075 9.46673C57.99 13.9341 57.8589 16.689 60.2135 17.7313C60.3568 17.7949 60.5095 17.8527 60.672 17.9045L60.6496 17.8982C61.4061 18.0955 62.2203 18.0753 63.0916 17.8375C63.0932 17.8371 63.0952 17.8364 63.0969 17.836C63.5464 17.7196 64.0045 17.5656 64.4712 17.3736L64.4552 17.3807C67.5648 15.9461 69.4168 15.1635 70.0109 15.0329L69.9708 15.0439C71.4207 14.5765 72.7844 14.3461 74.0615 14.3532H74.064C75.2786 14.3667 76.3937 14.5509 77.4091 14.9058L77.3576 14.8916C77.9305 15.0152 79.1459 15.6466 81.0041 16.7862L80.973 16.7688C81.3805 16.9711 81.8349 17.1287 82.3355 17.2416L82.3396 17.2423C82.7111 17.3296 83.1513 17.3743 83.6592 17.3764L83.6327 17.3771C85.9044 17.2501 87.2113 17.2291 87.5535 17.3143C87.56 17.3161 87.5665 17.3179 87.5731 17.3196L87.4898 17.3051C88.3745 17.3722 89.303 17.5731 90.2751 17.9077C90.4736 17.9762 90.5707 18.1714 90.4919 18.3439C90.4135 18.5164 90.189 18.6009 89.9906 18.5327C89.0882 18.2222 88.2325 18.0362 87.4224 17.9745C87.3942 17.9723 87.3665 17.9677 87.3391 17.9603C87.3395 17.9603 87.3399 17.9603 87.3403 17.9603C87.0839 17.8964 85.8648 17.9255 83.6825 18.0476C83.6735 18.0483 83.6645 18.0483 83.6559 18.0483C83.0802 18.0462 82.5744 17.9936 82.1379 17.8914L82.142 17.8921C81.5745 17.7644 81.0572 17.5844 80.5897 17.3526C80.579 17.3473 80.5684 17.3416 80.5586 17.3353C78.7793 16.2442 77.6504 15.6473 77.1715 15.544C77.1543 15.5401 77.1372 15.5355 77.1204 15.5294C76.1948 15.2057 75.1725 15.0375 74.0542 15.0255H74.0566C72.8734 15.0187 71.6011 15.2349 70.2399 15.6739C70.2268 15.6781 70.2138 15.6817 70.2003 15.6845C69.6663 15.802 67.8722 16.5651 64.8178 17.9745C64.8125 17.9766 64.8072 17.9791 64.8015 17.9812C64.2993 18.1878 63.8048 18.3539 63.3177 18.4802L63.3231 18.4788C62.3007 18.7574 61.3355 18.7787 60.4275 18.5416C60.4197 18.5398 60.4123 18.5377 60.405 18.5352C60.2139 18.4742 60.033 18.406 59.8624 18.3304C57.0484 17.0847 57.0672 14.0285 59.9183 9.1615C59.9314 9.1395 59.9473 9.11856 59.9657 9.09939C61.3465 7.65488 62.8878 7.27511 64.5896 7.9594C64.6092 7.9672 64.6275 7.97643 64.6455 7.98672C66.2264 8.92513 66.7923 10.3622 66.3432 12.2976C66.3011 12.4793 66.0974 12.5971 65.8879 12.5605C65.6789 12.5236 65.5433 12.3465 65.5854 12.1645Z" fill="#00167A"/>
<path d="M38.3425 19.9741C38.4511 19.8981 38.6626 19.7466 38.8802 19.6088C39.0975 19.4711 39.3196 19.3459 39.5474 19.2337C39.7752 19.1215 40.0084 19.0218 40.1676 18.9547C40.3268 18.8873 40.5081 18.8319 40.8686 18.7446C41.2291 18.6573 41.7632 18.5434 42.4675 18.3989C43.1718 18.2541 44.0472 18.0809 44.6841 17.9354C45.321 17.7899 45.5603 17.6948 45.7885 17.5887C46.0172 17.4825 46.2344 17.3654 46.4406 17.2369C46.6468 17.1088 46.8411 16.9693 47.0163 16.8288C47.1914 16.6886 47.3592 16.5296 47.5266 16.3425C47.694 16.1555 47.8635 15.9418 48.0349 15.6998C48.206 15.4577 48.3795 15.1876 48.7245 14.5236C49.0691 13.8595 49.5346 12.9307 49.9506 12.1361C50.3667 11.3414 50.7064 10.6713 51.0024 10.1389C51.2988 9.60656 51.5499 9.21473 51.8361 8.8268C52.1223 8.43923 52.4767 7.99913 52.8364 7.60375C53.1961 7.20802 53.5587 6.85594 53.9254 6.54717C54.292 6.23839 54.6623 5.97326 55.2931 5.64319C55.9235 5.31347 56.8344 4.98553 57.7588 4.80168C58.6832 4.61783 59.6267 4.58199 60.5944 4.69059C61.5624 4.7992 62.5574 5.05758 63.305 5.34967C64.0526 5.64213 64.0526 5.64213 63.5573 5.44053C63.5573 5.44053 62.5766 5.01712 61.6012 4.72821C60.6254 4.43895 59.6422 4.31047 58.6558 4.34668C57.6694 4.38288 56.6838 4.57986 55.7063 4.94045C54.7289 5.30105 54.2993 5.54914 53.8911 5.83485C53.4828 6.1202 53.0798 6.44956 52.6817 6.82294C52.284 7.19631 51.8933 7.61476 51.507 8.07473C51.1208 8.5347 50.8705 8.85732 50.5749 9.31304C50.2793 9.76875 49.938 10.3533 49.5607 11.0734C49.1835 11.7932 48.776 12.651 48.3281 13.6395C47.8798 14.6279 47.732 14.8938 47.5781 15.1443C47.4241 15.3949 47.2751 15.616 47.1302 15.8063C46.9848 15.9965 46.8444 16.1555 46.7096 16.2865C46.5745 16.4178 46.4144 16.5551 46.2438 16.6815C46.0735 16.8078 45.8914 16.9257 45.6975 17.0343C45.5035 17.1429 45.2978 17.243 45.0944 17.3299C44.8911 17.4172 43.9218 17.6508 43.1122 17.8527C42.3025 18.0547 41.6615 18.2232 41.1883 18.3571C40.7155 18.4909 40.4085 18.5899 40.266 18.6548C40.1235 18.7198 39.8932 18.828 39.6642 18.9522C39.4355 19.0765 39.2155 19.2138 39.0052 19.364C38.7945 19.5144 38.5928 19.677 38.4993 19.7671C38.3062 19.9418 38.4422 19.8892 38.3425 19.9741Z" fill="#00167A"/>
<path d="M30.9055 22.1483C31.1582 22.0294 31.6376 21.8044 32.099 21.6276C32.5599 21.4505 33.0037 21.3227 33.43 21.2422C33.8558 21.1616 34.2657 21.1307 34.5569 21.1353C34.848 21.1403 35.0268 21.1534 35.1975 21.1723C35.3681 21.1907 35.5306 21.2156 35.6846 21.2464C35.8389 21.2777 35.9847 21.3142 36.0839 21.3398C36.1831 21.3653 36.2733 21.3966 36.4591 21.4718C36.6449 21.5471 36.9164 21.6642 37.2712 21.8218C37.626 21.9797 38.0645 22.1767 38.4115 22.3257C38.759 22.4752 38.9431 22.5373 39.1273 22.5909C39.3118 22.6441 39.4964 22.6888 39.6813 22.7243C39.8659 22.7598 40.0516 22.7847 40.2031 22.7864C40.3546 22.7886 40.491 22.7921 40.6326 22.7864C40.7747 22.7804 40.9225 22.7655 41.076 22.741C41.23 22.7165 41.3896 22.6835 41.5052 22.6558C41.6207 22.6278 41.6889 22.61 41.7558 22.5912C41.8232 22.5724 41.8894 22.5525 41.9555 22.5316C42.0212 22.5107 42.0861 22.489 42.3164 22.3964C42.5467 22.3037 42.8897 22.1632 43.1755 22.0486C43.4613 21.9339 43.6899 21.8455 43.8606 21.7845C44.0308 21.7238 44.139 21.6911 44.2721 21.6567C44.4052 21.6223 44.5837 21.5769 44.7641 21.5382C44.9446 21.4995 45.1271 21.4672 45.3112 21.4409C45.495 21.4147 45.6811 21.3944 45.8702 21.382C46.0592 21.3696 46.2523 21.3653 46.4447 21.3692C46.637 21.3731 46.8284 21.3852 47.0191 21.4051C47.2098 21.425 47.4001 21.4526 47.612 21.4967C47.8234 21.5407 48.0639 21.6021 48.3097 21.6713C48.5559 21.7405 48.8074 21.8179 49.0638 21.9041C49.3202 21.9903 49.5762 22.0954 49.7702 22.1785C49.9641 22.2619 49.9641 22.2619 49.8351 22.2061C49.8351 22.2061 49.5762 22.0954 49.3243 21.9879C49.0728 21.8803 48.8278 21.7756 48.5865 21.6794C48.3452 21.5836 48.1068 21.4967 47.8712 21.4186C47.6356 21.3405 47.4429 21.2912 47.249 21.2507C47.0555 21.2102 46.8591 21.1786 46.6606 21.1552C46.4622 21.1318 46.2613 21.1165 46.0576 21.1101C45.8543 21.1034 45.6558 21.1084 45.4603 21.1204C45.2643 21.1325 45.0695 21.152 44.8756 21.1786C44.6817 21.2049 44.4889 21.2386 44.3003 21.278C44.1121 21.3174 44.0263 21.3316 43.8749 21.3721C43.7234 21.4122 43.5197 21.4754 43.2604 21.5616C43.0007 21.6482 42.6855 21.7596 42.3152 21.8952C41.9453 22.0312 41.8983 22.0446 41.8387 22.0613C41.7787 22.0784 41.7187 22.094 41.6574 22.1089C41.5966 22.1241 41.535 22.138 41.4733 22.1511C41.4117 22.1639 41.2594 22.1934 41.1201 22.2136C40.9805 22.2342 40.8511 22.2473 40.7318 22.253C40.6126 22.2587 40.5036 22.2569 40.3999 22.248C40.2966 22.2388 40.1321 22.2033 39.9704 22.1841C39.8087 22.1646 39.6454 22.138 39.4808 22.1025C39.3159 22.067 39.1497 22.0226 38.9876 21.9719C38.8255 21.9211 38.3258 21.7163 37.9036 21.5471C37.4819 21.3778 37.143 21.2461 36.8874 21.151C36.6314 21.0555 36.4554 20.9959 36.3586 20.9721C36.2615 20.948 36.112 20.9132 35.9446 20.883C35.7772 20.8528 35.6033 20.8298 35.4233 20.8131C35.2432 20.7964 35.0566 20.7865 34.8602 20.784C34.6642 20.7815 34.2364 20.8053 33.7966 20.8812C33.3573 20.9572 32.9123 21.0864 32.4623 21.2674C32.0124 21.4484 31.5576 21.6816 31.3359 21.8264C30.8765 22.111 31.1436 22.0084 30.9055 22.1483Z" fill="#00167A"/>
<path d="M54.1283 20.8014C53.9479 20.6562 53.6049 20.3641 53.3085 20.0465C53.0121 19.7288 52.7618 19.3853 52.556 19.0151C52.3506 18.6449 52.1902 18.2467 52.0624 17.7945C51.9346 17.3424 51.8472 16.8597 51.8133 16.3798C51.7795 15.9 51.799 15.4226 51.8705 14.947C51.942 14.4718 52.0661 13.9973 52.389 13.2509C52.712 12.5048 53.2742 11.5437 53.9569 10.6994C54.6395 9.85537 55.4435 9.1253 56.3703 8.50313C57.2971 7.88096 58.3525 7.36668 59.221 7.0611C60.0894 6.75552 60.0894 6.75552 59.5059 6.95037C59.5059 6.95037 58.326 7.31451 57.2469 7.79294C56.1682 8.27137 55.2046 8.89035 54.3611 9.64703C53.5175 10.4037 52.799 11.2956 52.2057 12.3185C51.6125 13.3414 51.4585 13.8713 51.3683 14.382C51.2777 14.8927 51.2462 15.402 51.2736 15.9092C51.3005 16.4167 51.3863 16.9211 51.5284 17.4215C51.6704 17.9223 51.8395 18.3528 52.0546 18.7507C52.2698 19.1489 52.5332 19.5113 52.841 19.8388C53.1493 20.1661 53.502 20.4571 53.7013 20.5828C54.0969 20.8376 53.932 20.6722 54.1283 20.8014Z" fill="#00167A"/>
<path d="M55.0968 14.623C54.9711 14.9254 54.8617 15.5287 54.9196 16.1204C54.9776 16.712 55.2059 17.2863 55.5986 17.8389C55.9918 18.3911 56.5487 18.9182 57.0325 19.2607C57.5168 19.6028 57.7997 19.7515 58.0868 19.8527C58.3734 19.9542 58.6441 20.0401 58.905 20.1011C59.1659 20.1625 59.4166 20.198 59.604 20.2101C59.7914 20.2218 59.9241 20.225 60.0576 20.2246C60.1915 20.2246 60.3262 20.2211 60.4622 20.2136C60.5981 20.2065 60.7353 20.1959 61.024 20.1508C61.3131 20.1054 61.7018 20.0379 62.0345 19.9836C62.3673 19.929 62.6433 19.8878 62.8629 19.8601C63.0822 19.8324 63.2451 19.8186 63.3978 19.8097C63.5509 19.8005 63.7285 19.7923 63.9069 19.7909C64.0849 19.7895 64.2642 19.7945 64.443 19.8111C64.6219 19.8275 64.8003 19.8537 64.9338 19.8768C65.0677 19.8995 65.0677 19.8995 64.9783 19.8843C64.9783 19.8843 64.8003 19.8537 64.6219 19.83C64.4434 19.8058 64.2654 19.7828 64.087 19.7647C63.9086 19.7462 63.7289 19.7348 63.5497 19.7299C63.37 19.7249 63.2418 19.7192 63.0544 19.7238C62.867 19.7281 62.6233 19.7419 62.3224 19.7654C62.0214 19.7891 61.6638 19.8232 61.2506 19.8672C60.8378 19.9112 60.7145 19.9144 60.5834 19.9159C60.4524 19.9169 60.323 19.9151 60.1952 19.9109C60.0674 19.9066 59.9412 19.8992 59.8183 19.8889C59.6954 19.8789 59.4786 19.8513 59.2557 19.8001C59.0324 19.7494 58.7984 19.6742 58.553 19.5748C58.3076 19.4754 58.0631 19.332 57.7956 19.2018C57.5282 19.0715 56.8705 18.6169 56.3683 18.1391C55.8665 17.6614 55.5137 17.1603 55.3104 16.6293C55.107 16.0987 55.0507 15.5344 55.0536 15.2377C55.1471 14.634 55.0066 14.9296 55.0968 14.623Z" fill="#00167A"/>
<path d="M61.0505 21.7362C61.2947 21.7589 61.7761 21.7699 62.2472 21.7579C62.718 21.7458 63.1777 21.7107 63.6269 21.6532C64.0756 21.5957 64.5128 21.5151 64.8113 21.4459C65.1098 21.3767 65.2776 21.3288 65.4519 21.2738C65.6258 21.2188 65.8063 21.157 65.9937 21.0889C66.1807 21.0207 66.3746 20.9465 67.5517 20.4376C68.7284 19.9286 70.8712 18.9867 71.1533 18.8958C71.4354 18.8046 71.7212 18.724 72.0001 18.6602C72.2789 18.5959 72.5468 18.5285 72.8109 18.4852C73.0755 18.4422 73.3376 18.4142 73.581 18.3968C73.8239 18.3794 74.0677 18.3716 74.3126 18.3734C74.5576 18.3755 74.8038 18.3872 75.0512 18.4089C75.2987 18.4302 75.551 18.461 75.6396 18.4731C75.7282 18.4852 75.8184 18.4994 75.9099 18.5153C76.0017 18.531 76.0952 18.5487 76.19 18.5686C76.2847 18.5881 76.3753 18.608 77.0972 18.7911C77.8194 18.9743 78.4302 19.1226 78.9284 19.239C79.4265 19.3558 79.8119 19.4406 80.0863 19.4935C80.3606 19.546 80.5207 19.567 81.0057 19.6309C81.4912 19.6951 81.9571 19.7427 82.4025 19.775C82.8484 19.8069 83.273 19.8225 83.5812 19.8268C83.8891 19.8314 83.8891 19.8314 83.6845 19.8197C83.6845 19.8197 83.2779 19.7707 82.8528 19.7143C82.4274 19.6582 81.9844 19.5865 81.5226 19.4999C81.0609 19.4136 80.5791 19.3114 80.3917 19.2692C80.2047 19.2273 79.9054 19.1475 79.4938 19.0314C79.0819 18.9153 78.5584 18.7617 77.9231 18.5714C77.2883 18.3812 76.5386 18.1579 76.4349 18.1303C76.3312 18.1029 76.2316 18.0784 76.1328 18.0557C76.0344 18.033 75.9368 18.0124 75.8405 17.994C75.7441 17.9752 75.6486 17.9585 75.3864 17.9191C75.1239 17.8797 74.8597 17.8509 74.5956 17.8328C74.3314 17.8144 74.0673 17.8069 73.8031 17.8098C73.5393 17.8126 73.2764 17.8257 72.9873 17.8524C72.6983 17.8786 72.4022 17.9216 72.1017 17.9812C71.8008 18.0405 71.4983 18.1256 71.1921 18.2264C70.8858 18.3269 70.5543 18.4536 68.4533 19.4736C66.3522 20.4937 66.1697 20.5778 65.9888 20.6569C65.8079 20.7361 65.6328 20.8078 65.4646 20.8727C65.2964 20.9373 65.1351 20.9962 64.9824 21.0473C64.8297 21.0988 64.421 21.2138 63.9984 21.3086C63.5758 21.4033 63.1394 21.4818 62.6882 21.541C62.2366 21.6003 61.7704 21.6422 61.5327 21.6677C61.0509 21.6912 61.2943 21.738 61.0505 21.7362Z" fill="#00167A"/>
<mask id="mask3_21_338" style="mask-type:luminance" maskUnits="userSpaceOnUse" x="76" y="20" width="26" height="3">
<path d="M76.5605 20.7237H101.017V22.9043H76.5605V20.7237Z" fill="white"/>
</mask>
<g mask="url(#mask3_21_338)">
<path d="M76.5973 20.7918C76.7606 20.8645 77.0729 20.9838 77.3551 21.0842C77.6372 21.1847 77.8899 21.2656 78.1129 21.328C78.3358 21.3905 78.5293 21.4342 78.8498 21.486C79.1703 21.5382 79.6227 21.5999 80.0543 21.6531C80.4858 21.7064 80.8966 21.749 81.2865 21.7806C81.6764 21.8121 82.0451 21.8352 82.3138 21.8483C82.582 21.8615 82.7702 21.8693 82.9552 21.8732C83.1397 21.8767 83.3218 21.8764 83.5007 21.8718C83.6795 21.8672 83.8551 21.8583 84.2389 21.8111C84.6227 21.7639 85.1563 21.6925 85.6291 21.635C86.1015 21.5772 86.5126 21.5307 86.8613 21.497C87.21 21.4629 87.4958 21.442 87.7044 21.4285C87.9131 21.4154 88.0911 21.4097 88.3083 21.4122C88.5251 21.4146 88.7803 21.4068 89.0726 21.4164C89.3649 21.426 89.6936 21.4434 89.9774 21.4622C90.2611 21.481 90.4653 21.4973 90.6535 21.5154C90.8417 21.5332 91.0132 21.5523 91.1688 21.5726C91.3239 21.5928 91.4627 21.6145 91.7416 21.6815C92.0205 21.749 92.5447 21.8718 93.1653 22.0006C93.7859 22.1291 94.5057 22.2593 95.3239 22.3935C96.1418 22.528 97.0596 22.6625 97.6871 22.7466C98.3147 22.8304 98.5972 22.8574 98.8961 22.8726C99.1954 22.8883 99.5106 22.8915 99.8421 22.8836C100.174 22.8758 100.522 22.8666 100.793 22.8584C101.063 22.8506 101.063 22.8506 100.882 22.856C100.882 22.856 100.522 22.8666 100.18 22.8574C99.8376 22.8478 99.5142 22.8244 99.2096 22.7917C98.9051 22.7591 98.6193 22.7179 98.3518 22.6671C98.0844 22.6167 97.1168 22.4155 96.2475 22.231C95.3782 22.0464 94.6078 21.8746 93.937 21.7156C93.2662 21.5563 92.695 21.4097 92.2205 21.2705C91.7457 21.1314 91.5877 21.0981 91.4329 21.07C91.2786 21.042 91.1096 21.015 90.9254 20.9891C90.7409 20.9632 90.5416 20.9383 90.3265 20.9146C90.1109 20.8904 89.752 20.8556 89.4266 20.8294C89.1012 20.8031 88.8089 20.7857 88.5496 20.7761C88.2903 20.7666 88.0629 20.7747 87.8735 20.79C87.684 20.8056 87.4305 20.8262 87.112 20.8627C86.7935 20.8993 86.4167 20.9493 85.9818 21.0157C85.5466 21.0824 85.0526 21.1626 84.5014 21.2571C83.9506 21.3518 83.8028 21.3674 83.6374 21.3816C83.4717 21.3958 83.3022 21.4061 83.1291 21.4129C82.9556 21.4193 82.7784 21.4221 82.5951 21.4207C82.4118 21.4193 82.0614 21.4196 81.6919 21.4122C81.3228 21.4047 80.9305 21.388 80.5157 21.365C80.1008 21.3419 79.6631 21.3106 79.203 21.272C78.7429 21.2336 78.5787 21.2155 78.3807 21.1811C78.1823 21.1467 77.9495 21.0966 77.6829 21.0313C77.4159 20.9657 77.1154 20.8851 76.9505 20.8464C76.6165 20.7499 76.7667 20.85 76.5973 20.7918Z" fill="#00167A"/>
</g>
<mask id="mask4_21_338" style="mask-type:luminance" maskUnits="userSpaceOnUse" x="31" y="22" width="90" height="33">
<path d="M31.407 22.8134H120.059V54.7049H31.407V22.8134Z" fill="white"/>
</mask>
<g mask="url(#mask4_21_338)">
<mask id="mask5_21_338" style="mask-type:luminance" maskUnits="userSpaceOnUse" x="31" y="22" width="90" height="33">
<path d="M120.147 22.8134H31.407V54.7049H120.147V22.8134Z" fill="white"/>
</mask>
<g mask="url(#mask5_21_338)">
<path d="M33.2504 45.7041V32.6417H38.4357V34.527H38.4928C38.532 34.4589 38.5957 34.3744 38.6839 34.2729C38.7721 34.1707 38.9624 33.9925 39.2555 33.7377C39.5483 33.4832 39.8606 33.2543 40.1929 33.0506C40.5249 32.8462 40.9544 32.6637 41.4815 32.5026C42.0082 32.3408 42.5451 32.2598 43.0918 32.2598C43.6577 32.2598 44.2142 32.328 44.7609 32.4643C45.3084 32.5998 45.7089 32.7354 45.9629 32.8717L46.3728 33.0747L44.2056 36.8936C43.5609 36.4188 42.6627 36.181 41.5109 36.181C40.8858 36.181 40.3485 36.2999 39.899 36.5373C39.4503 36.7751 39.133 37.0636 38.9468 37.4033C38.7615 37.7433 38.63 38.0319 38.5516 38.2693C38.474 38.5071 38.4357 38.6938 38.4357 38.8301V45.7041H33.2504Z" fill="#00167A"/>
<path d="M48.716 32.6417V29.8662C48.7356 27.9149 49.2623 26.3536 50.2969 25.1827C51.3324 24.0111 52.7679 23.4252 54.6036 23.4252C55.3842 23.4252 56.131 23.5228 56.8443 23.7176C57.5572 23.9128 58.07 24.1123 58.3827 24.3167L58.8808 24.5964L57.0648 27.7793C56.5952 27.5418 56.0775 27.4229 55.5116 27.4229C54.8669 27.4229 54.4374 27.6142 54.2231 27.9965C54.0083 28.378 53.9013 29.0439 53.9013 29.994V32.6417H57.3571V36.0801H53.9013V45.704H48.716V36.0801H46.5488V32.6417H48.716Z" fill="#00167A"/>
<path d="M65.3543 32.2598C66.2134 32.2598 67.0626 32.345 67.9021 32.5154C68.7415 32.685 69.3662 32.8543 69.7769 33.0236L70.391 33.2792L68.6925 36.2321C67.5207 35.689 66.4081 35.4172 65.3543 35.4172C64.7684 35.4172 64.3532 35.4725 64.1082 35.5833C63.8641 35.6933 63.7424 35.9009 63.7424 36.2065C63.7424 36.2747 63.7522 36.3428 63.7718 36.4109C63.7914 36.4784 63.8306 36.5416 63.8894 36.6012C63.9482 36.6608 64.0013 36.7119 64.0494 36.7545C64.0984 36.7971 64.1817 36.8439 64.2993 36.8951C64.4169 36.9455 64.5092 36.9831 64.5769 37.0086C64.6455 37.0342 64.7574 37.0725 64.9134 37.1236C65.0702 37.1747 65.1877 37.2131 65.2661 37.2386C65.3445 37.2642 65.476 37.3025 65.6614 37.3536C65.8463 37.404 65.988 37.4374 66.086 37.4544C66.6911 37.607 67.2182 37.7767 67.6669 37.9641C68.1164 38.1508 68.59 38.4052 69.0877 38.7279C69.5863 39.0508 69.9721 39.4583 70.2457 39.9502C70.5188 40.4425 70.6556 41.0022 70.6556 41.6297C70.6556 44.6007 68.283 46.086 63.5383 46.086C62.4636 46.086 61.4429 45.9416 60.4761 45.653C59.5101 45.3645 58.8123 45.0759 58.3824 44.787L57.7389 44.3299L59.8473 41.2478C60.0029 41.367 60.2074 41.5076 60.4614 41.6694C60.7161 41.8305 61.1751 42.0509 61.8381 42.331C62.502 42.6114 63.0785 42.7512 63.5676 42.7512C64.641 42.7512 65.1779 42.4371 65.1779 41.8085C65.1779 41.52 65.0412 41.2953 64.768 41.1342C64.4945 40.9724 64.0307 40.7899 63.3766 40.5862C62.7221 40.3828 62.2093 40.1958 61.8381 40.0254C60.9015 39.6017 60.1596 39.1222 59.6121 38.5873C59.0654 38.0528 58.7923 37.3444 58.7923 36.4621C58.7923 35.1382 59.3827 34.1068 60.5643 33.3686C61.7454 32.6297 63.3423 32.2598 65.3543 32.2598Z" fill="#00167A"/>
<path d="M74.2588 44.0871C72.8531 42.7547 72.1504 41.1211 72.1504 39.1864C72.1504 37.251 72.8531 35.6127 74.2588 34.2715C75.6641 32.9306 77.4508 32.2598 79.6188 32.2598C81.6101 32.2598 83.2502 32.8032 84.5396 33.8896V32.6417H89.7248V45.7041H84.5984V44.2277H84.5396C83.2502 45.4667 81.6101 46.086 79.6188 46.086C77.4508 46.086 75.6641 45.4198 74.2588 44.0871ZM78.6667 36.9717C77.9926 37.5481 77.6558 38.2863 77.6558 39.1864C77.6558 40.0858 77.9779 40.8197 78.6226 41.3883C79.2669 41.9572 80.1161 42.2415 81.1703 42.2415C82.1862 42.2415 83.0211 41.953 83.6756 41.3755C84.3297 40.7984 84.6571 40.0687 84.6571 39.1864C84.6571 38.2863 84.3199 37.5481 83.6462 36.9717C82.9721 36.3946 82.147 36.1057 81.1703 36.1057C80.1749 36.1057 79.3404 36.3946 78.6667 36.9717Z" fill="#00167A"/>
<path d="M93.9712 32.6417V29.8662C93.9908 27.9149 94.5175 26.3536 95.5521 25.1827C96.5875 24.0111 98.023 23.4252 99.8587 23.4252C100.639 23.4252 101.386 23.5228 102.099 23.7176C102.812 23.9128 103.325 24.1123 103.638 24.3167L104.136 24.5964L102.32 27.7793C101.85 27.5418 101.333 27.4229 100.767 27.4229C100.122 27.4229 99.6925 27.6142 99.4782 27.9965C99.2634 28.378 99.1565 29.0439 99.1565 29.994V32.6417H102.612V36.0801H99.1565V45.704H93.9712V36.0801H91.804V32.6417H93.9712Z" fill="#00167A"/>
<path d="M119.278 39.7969H108.383C108.383 40.714 108.725 41.3933 109.407 41.8341C110.091 42.2753 110.833 42.4957 111.633 42.4957C112.474 42.4957 113.138 42.3984 113.626 42.2032C114.113 42.0084 114.67 41.6222 115.295 41.0448L119.045 42.6745C117.482 44.9488 114.885 46.086 111.253 46.086C108.988 46.086 107.045 45.4113 105.424 44.0616C103.804 42.7122 102.994 41.087 102.994 39.1864C102.994 37.2851 103.804 35.6553 105.424 34.2971C107.045 32.9391 108.988 32.2598 111.253 32.2598C113.635 32.2598 115.573 32.8586 117.067 34.0557C118.561 35.2521 119.308 36.9625 119.308 39.1864C119.308 39.4913 119.298 39.6946 119.278 39.7969ZM108.529 37.3011H114.242C114.124 36.6225 113.816 36.1011 113.317 35.7366C112.82 35.3714 112.181 35.1886 111.4 35.1886C110.541 35.1886 109.857 35.3842 109.349 35.7749C108.841 36.165 108.568 36.6736 108.529 37.3011Z" fill="#00167A"/>
</g>
</g>
<mask id="mask6_21_338" style="mask-type:luminance" maskUnits="userSpaceOnUse" x="0" y="22" width="16" height="34">
<path d="M0 22.1774H15.1014V55.3409H0V22.1774Z" fill="white"/>
</mask>
<g mask="url(#mask6_21_338)">
<mask id="mask7_21_338" style="mask-type:luminance" maskUnits="userSpaceOnUse" x="-1" y="22" width="17" height="34">
<path d="M15.1014 22.1774H-0.0543213V55.3409H15.1014V22.1774Z" fill="white"/>
</mask>
<g mask="url(#mask7_21_338)">
<path d="M8.67013 32.0141C9.56184 32.0141 10.4429 32.1028 11.3142 32.2796C12.1863 32.4556 12.8351 32.6316 13.261 32.8077L13.8995 33.0717L12.1357 36.1368C10.9194 35.5739 9.76435 35.2921 8.67013 35.2921C8.06259 35.2921 7.63185 35.3496 7.3783 35.4639C7.12434 35.5785 6.99777 35.7943 6.99777 36.1112C6.99777 36.1815 7.00757 36.2518 7.02717 36.3228C7.04758 36.3931 7.08841 36.4587 7.14966 36.5201C7.21049 36.5819 7.26602 36.6347 7.31624 36.6791C7.36728 36.7228 7.45383 36.771 7.57591 36.8239C7.69758 36.8772 7.79394 36.9169 7.86498 36.9432C7.93562 36.9698 8.05198 37.0095 8.21448 37.0624C8.37657 37.1157 8.49783 37.1554 8.57867 37.1817C8.66033 37.2072 8.7967 37.2466 8.9886 37.2995C9.18131 37.3527 9.3283 37.3882 9.42955 37.406C10.0575 37.5643 10.6046 37.7403 11.0709 37.9341C11.538 38.1282 12.0295 38.3927 12.5456 38.7277C13.0625 39.062 13.4626 39.4844 13.746 39.9955C14.0302 40.5065 14.1723 41.0883 14.1723 41.7402C14.1723 44.8231 11.7099 46.3641 6.78546 46.3641C5.67042 46.3641 4.61091 46.2143 3.60733 45.9155C2.60457 45.6156 1.88026 45.316 1.43522 45.0168L0.765625 44.5413L2.95406 41.3427C3.11615 41.467 3.32887 41.6125 3.59263 41.78C3.85598 41.9468 4.33245 42.1757 5.02165 42.4671C5.71084 42.7578 6.30899 42.903 6.81649 42.903C7.93031 42.903 8.48722 42.5771 8.48722 41.9248C8.48722 41.6249 8.34513 41.3917 8.06096 41.2249C7.77761 41.0574 7.29664 40.8682 6.61725 40.657C5.93867 40.4451 5.40707 40.251 5.02165 40.075C4.0491 39.6342 3.27906 39.1362 2.71072 38.5815C2.1432 38.0271 1.85984 37.2917 1.85984 36.3753C1.85984 35.0011 2.47269 33.9306 3.69878 33.164C4.9257 32.3974 6.58295 32.0141 8.67013 32.0141Z" fill="#00167A"/>
</g>
</g>
<mask id="mask8_21_338" style="mask-type:luminance" maskUnits="userSpaceOnUse" x="38" y="51" width="46" height="7">
<path d="M38.9325 51.5249H83.25V57.3363H38.9325V51.5249Z" fill="white"/>
</mask>
<g mask="url(#mask8_21_338)">
<mask id="mask9_21_338" style="mask-type:luminance" maskUnits="userSpaceOnUse" x="38" y="51" width="46" height="7">
<path d="M83.25 51.5249H38.9325V57.3399H83.25V51.5249Z" fill="white"/>
</mask>
<g mask="url(#mask9_21_338)">
<path d="M39.4915 55.5975V52.7865H40.9368C41.2667 52.7865 41.5284 52.8547 41.7224 52.991C41.9159 53.1273 42.0131 53.3111 42.0131 53.5418C42.0131 53.6724 41.9792 53.7913 41.9118 53.8982C41.844 54.0053 41.7489 54.0898 41.626 54.1523C41.7795 54.2112 41.8987 54.2981 41.9837 54.4135C42.0686 54.5281 42.111 54.6605 42.111 54.811C42.111 54.9682 42.0645 55.1059 41.9722 55.2241C41.8795 55.3416 41.7505 55.4335 41.5852 55.4995C41.4206 55.5648 41.2291 55.5975 41.0103 55.5975H39.4915ZM40.2166 55.0921H40.8992C41.0438 55.0921 41.1565 55.063 41.2373 55.0041C41.3177 54.9444 41.3582 54.8614 41.3582 54.7542C41.3582 54.6474 41.3177 54.5647 41.2373 54.5058C41.1565 54.4461 41.0438 54.4163 40.8992 54.4163H40.2166V55.0921ZM40.2166 53.9308H40.8257C40.967 53.9308 41.0756 53.9031 41.1507 53.847C41.2267 53.7903 41.2651 53.7115 41.2651 53.61C41.2651 53.5077 41.2267 53.4293 41.1507 53.3743C41.0756 53.3196 40.967 53.292 40.8257 53.292H40.2166V53.9308Z" fill="#2272B5"/>
<path d="M44.5398 55.5975L45.8251 52.7865H46.5453L47.8306 55.5975H47.0451L46.8279 55.112H45.5426L45.3253 55.5975H44.5398ZM45.732 54.6094H46.6433L46.186 53.5816L45.732 54.6094Z" fill="#2272B5"/>
<path d="M51.979 55.6542C51.6491 55.6542 51.356 55.5925 51.1004 55.4682C50.8456 55.3433 50.6456 55.1712 50.501 54.9515C50.3561 54.7321 50.2838 54.4787 50.2838 54.192C50.2838 53.9052 50.3549 53.6521 50.4978 53.4324C50.6415 53.2131 50.8399 53.0413 51.0939 52.9171C51.3486 52.7922 51.6385 52.7297 51.9643 52.7297C52.2265 52.7297 52.4682 52.7702 52.6895 52.8504C52.9116 52.9309 53.1002 53.0442 53.2562 53.1897C53.4117 53.3355 53.5216 53.5077 53.5861 53.7064H52.7973C52.7197 53.5826 52.6094 53.4864 52.4657 53.4182C52.3228 53.3501 52.1607 53.316 51.979 53.316C51.7904 53.316 51.6238 53.354 51.4793 53.4296C51.3343 53.5045 51.2212 53.6078 51.1396 53.7391C51.0579 53.8697 51.0171 54.0209 51.0171 54.192C51.0171 54.3605 51.0571 54.5107 51.138 54.642C51.2184 54.7726 51.3307 54.8762 51.4744 54.9529C51.6189 55.0296 51.7904 55.0679 51.9888 55.0679C52.2248 55.0679 52.4216 55.0161 52.5784 54.9117C52.736 54.8067 52.8381 54.6686 52.8838 54.4972H51.8353V54.0031H53.6612C53.6796 54.2438 53.6522 54.4645 53.5795 54.6661C53.5077 54.867 53.3966 55.0416 53.2464 55.19C53.0969 55.3387 52.9152 55.4533 52.7009 55.5336C52.4874 55.6138 52.2469 55.6542 51.979 55.6542Z" fill="#2272B5"/>
<path d="M56.1082 55.5975L57.3935 52.7865H58.1137L59.399 55.5975H58.6134L58.3962 55.112H57.1109L56.8937 55.5975H56.1082ZM57.3004 54.6094H58.2117L57.7544 53.5816L57.3004 54.6094Z" fill="#2272B5"/>
<path d="M63.1684 55.6542C62.8973 55.6542 62.6638 55.6152 62.4678 55.5378C62.2726 55.4604 62.122 55.3501 62.0154 55.207C61.9084 55.0633 61.8553 54.8947 61.8553 54.7016H62.5772C62.5772 54.8361 62.6299 54.9408 62.7356 55.0154C62.8422 55.0903 62.9847 55.1275 63.1635 55.1275C63.3178 55.1275 63.4399 55.1016 63.5293 55.0494C63.6183 54.9976 63.6633 54.9245 63.6633 54.8308C63.6633 54.7314 63.6094 54.6512 63.5016 54.5895C63.3938 54.5281 63.2256 54.4759 62.9969 54.4333C62.618 54.3634 62.3375 54.2573 62.1558 54.1153C61.9738 53.9733 61.8831 53.7888 61.8831 53.5616C61.8831 53.3043 61.9909 53.1013 62.2065 52.9526C62.4229 52.8042 62.7177 52.7297 63.09 52.7297C63.3456 52.7297 63.5673 52.768 63.7547 52.8447C63.9429 52.9206 64.0883 53.0275 64.1908 53.1655C64.2941 53.304 64.3459 53.4679 64.3459 53.6582H63.6388C63.6388 53.5325 63.5906 53.4335 63.495 53.3615C63.4003 53.2887 63.268 53.2521 63.0982 53.2521C62.9447 53.2521 62.823 53.2784 62.734 53.3302C62.6446 53.3824 62.6001 53.4552 62.6001 53.5489C62.6001 53.6351 62.6491 53.7075 62.7471 53.7661C62.8459 53.825 63.0186 53.8796 63.2648 53.9307C63.6686 54.0141 63.9597 54.1252 64.1385 54.2644C64.3169 54.4035 64.4063 54.5845 64.4063 54.8067C64.4063 55.0718 64.2961 55.2794 64.0764 55.4299C63.8564 55.5797 63.5538 55.6542 63.1684 55.6542Z" fill="#2272B5"/>
<path d="M67.2161 55.5975V52.7865H68.6614C68.9913 52.7865 69.253 52.8547 69.447 52.991C69.6405 53.1273 69.7377 53.3111 69.7377 53.5418C69.7377 53.6724 69.7038 53.7913 69.6364 53.8982C69.5686 54.0053 69.4735 54.0898 69.3506 54.1523C69.5041 54.2112 69.6233 54.2981 69.7083 54.4135C69.7932 54.5281 69.8357 54.6605 69.8357 54.811C69.8357 54.9682 69.7891 55.1059 69.6968 55.2241C69.6042 55.3416 69.4751 55.4335 69.3098 55.4995C69.1452 55.5648 68.9537 55.5975 68.7349 55.5975H67.2161ZM67.9412 55.0921H68.6239C68.7684 55.0921 68.8811 55.063 68.9619 55.0041C69.0423 54.9444 69.0828 54.8614 69.0828 54.7542C69.0828 54.6474 69.0423 54.5647 68.9619 54.5058C68.8811 54.4461 68.7684 54.4163 68.6239 54.4163H67.9412V55.0921ZM67.9412 53.9308H68.5504C68.6916 53.9308 68.8002 53.9031 68.8754 53.847C68.9513 53.7903 68.9897 53.7115 68.9897 53.61C68.9897 53.5077 68.9513 53.4293 68.8754 53.3743C68.8002 53.3196 68.6916 53.292 68.5504 53.292H67.9412V53.9308Z" fill="#2272B5"/>
<path d="M72.2644 55.5975L73.5497 52.7865H74.2699L75.5552 55.5975H74.7697L74.5525 55.112H73.2672L73.05 55.5975H72.2644ZM73.4566 54.6094H74.3679L73.9106 53.5816L73.4566 54.6094Z" fill="#2272B5"/>
<path d="M79.3248 55.6542C79.0537 55.6542 78.8201 55.6152 78.6242 55.5378C78.429 55.4604 78.2783 55.3501 78.1718 55.207C78.0648 55.0633 78.0117 54.8947 78.0117 54.7016H78.7336C78.7336 54.8361 78.7862 54.9408 78.892 55.0154C78.9986 55.0903 79.1411 55.1275 79.3199 55.1275C79.4742 55.1275 79.5963 55.1016 79.6857 55.0494C79.7747 54.9976 79.8196 54.9245 79.8196 54.8308C79.8196 54.7314 79.7657 54.6512 79.6579 54.5895C79.5502 54.5281 79.3819 54.4759 79.1533 54.4333C78.7744 54.3634 78.4939 54.2573 78.3122 54.1153C78.1301 53.9733 78.0395 53.7888 78.0395 53.5616C78.0395 53.3043 78.1473 53.1013 78.3628 52.9526C78.5792 52.8042 78.874 52.7297 79.2464 52.7297C79.502 52.7297 79.7237 52.768 79.9111 52.8447C80.0993 52.9206 80.2447 53.0275 80.3471 53.1655C80.4504 53.304 80.5023 53.4679 80.5023 53.6582H79.7951C79.7951 53.5325 79.747 53.4335 79.6514 53.3615C79.5567 53.2887 79.4244 53.2521 79.2546 53.2521C79.101 53.2521 78.9794 53.2784 78.8904 53.3302C78.8009 53.3824 78.7564 53.4552 78.7564 53.5489C78.7564 53.6351 78.8054 53.7075 78.9034 53.7661C79.0022 53.825 79.1749 53.8796 79.4211 53.9307C79.8249 54.0141 80.116 54.1252 80.2949 54.2644C80.4733 54.4035 80.5627 54.5845 80.5627 54.8067C80.5627 55.0718 80.4525 55.2794 80.2328 55.4299C80.0128 55.5797 79.7102 55.6542 79.3248 55.6542Z" fill="#2272B5"/>
</g>
</g>
</svg>
